<svg xmlns="http://www.w3.org/2000/svg" width="512" height="320" viewBox="0 0 512 320" preserveAspectRatio="xMidYMid"><path d="M100.083.001h127.557c17.806 0 28.88 14.513 24.727 32.378l-59.387 254.971c-4.191 17.803-22.019 32.328-39.837 32.328h-127.545c-17.781 0-28.88-14.526-24.727-32.328l59.412-254.971c4.154-17.865 21.972-32.378 39.8-32.378" fill="#E21836"/><path d="M217.027.001h146.687c17.803 0 9.775 14.513 5.587 32.378l-59.378 254.971c-4.166 17.803-2.867 32.328-20.707 32.328h-146.687c-17.84 0-28.88-14.526-24.689-32.328l59.375-254.971c4.216-17.865 21.997-32.378 39.812-32.378" fill="#00447C"/><path d="M357.896.001h127.557c17.831 0 28.905 14.513 24.717 32.378l-59.378 254.971c-4.191 17.803-22.031 32.328-39.859 32.328h-127.498c-17.84 0-28.905-14.526-24.727-32.328l59.387-254.971c4.154-17.865 21.96-32.378 39.8-32.378" fill="#007B84"/><path d="M133.397 81.712c-13.117.134-16.991 0-18.229-.292-.476 2.26-9.327 43.092-9.352 43.126-1.906 8.261-3.293 14.15-8.003 17.952-2.674 2.211-5.795 3.277-9.414 3.277-5.817 0-9.206-2.888-9.775-8.367l-.109-1.881s1.772-11.065 1.772-11.127c0 0 9.29-37.21 10.953-42.128.087-.28.112-.426.134-.56-18.083.159-21.288 0-21.509-.292-.121.401-.569 2.708-.569 2.708l-9.486 41.939-.815 3.557-1.576 11.634c0 3.451.678 6.268 2.027 8.65 4.322 7.552 16.649 8.684 23.623 8.684 8.985 0 17.414-1.909 23.11-5.394 9.887-5.842 12.474-14.973 14.781-23.088l1.07-4.163s9.57-38.646 11.196-43.674c.062-.28.087-.426.171-.56zm32.561 31.176c-2.307 0-6.523.56-10.31 2.416-1.374.706-2.674 1.52-4.045 2.332l1.237-4.468-.678-.752c-8.031 1.626-9.828 1.844-17.246 2.888l-.622.414c-.861 7.142-1.626 12.511-4.819 26.549-1.216 5.174-2.478 10.397-3.743 15.558l.342.656c7.602-.401 9.909-.401 16.516-.292l.535-.581c.839-4.3.948-5.307 2.808-14.016.874-4.129 2.696-13.201 3.594-16.432 1.651-.765 3.28-1.517 4.835-1.517 3.703 0 3.252 3.23 3.109 4.518-.159 2.161-1.508 9.218-2.891 15.278l-.923 3.911c-.644 2.888-1.349 5.696-1.993 8.559l.28.572c7.493-.401 9.778-.401 16.177-.292l.752-.581c1.157-6.716 1.495-8.513 3.547-18.291l1.032-4.493c2.005-8.793 3.013-13.251 1.495-16.882-1.604-4.07-5.453-5.052-8.988-5.052zm36.374 9.206c-3.983.765-6.523 1.275-9.047 1.604-2.503.401-4.943.765-8.793 1.3l-.305.277-.28.221c-.401 2.867-.681 5.345-1.213 8.258-.451 3.013-1.144 6.436-2.273 11.354-.874 3.765-1.324 5.077-1.822 6.402-.485 1.324-1.02 2.612-2.002 6.315l.23.342.193.314c3.597-.171 5.951-.292 8.37-.314 2.416-.087 4.919 0 8.793.022l.339-.277.364-.305c.56-3.339.644-4.238.986-5.867.339-1.747.923-4.166 2.357-10.627.678-3.034 1.433-6.06 2.136-9.156.731-3.084 1.495-6.122 2.223-9.156l-.109-.367-.146-.339zm.085-12.412c-3.619-2.136-9.971-1.458-14.246 1.492-4.263 2.891-4.748 6.995-1.141 9.159 3.557 2.077 9.934 1.458 14.171-1.517 4.253-2.954 4.785-7.02 1.216-9.135zm21.887 49.467c7.322 0 14.827-2.018 20.477-8.006 4.347-4.856 6.339-12.082 7.03-15.057 2.248-9.862.497-14.467-1.701-17.271-3.339-4.275-9.24-5.646-15.362-5.646-3.681 0-12.449.364-19.298 6.678-4.919 4.555-7.191 10.736-8.562 16.662-1.384 6.038-2.975 16.907 7.02 20.952 3.084 1.324 7.53 1.688 10.397 1.688zm-.572-22.19c1.688-7.468 3.681-13.736 8.768-13.736 3.986 0 4.275 4.664 2.503 12.157-.317 1.663-1.772 7.847-3.74 10.481-1.374 1.943-3 3.122-4.797 3.122-.535 0-3.715 0-3.765-4.723-.025-2.332.451-4.713 1.032-7.3zm46.382 21.229l.572-.581c.811-4.3.945-5.31 2.742-14.016.899-4.129 2.758-13.201 3.631-16.432 1.654-.768 3.255-1.52 4.86-1.52 3.678 0 3.23 3.23 3.084 4.518-.134 2.164-1.483 9.218-2.891 15.278l-.874 3.911c-.668 2.891-1.396 5.696-2.04 8.562l.28.572c7.518-.401 9.716-.401 16.152-.292l.777-.581c1.129-6.719 1.433-8.516 3.547-18.291l1.007-4.496c2.015-8.793 3.034-13.248 1.542-16.879-1.651-4.07-5.525-5.052-9.01-5.052-2.31 0-6.548.557-10.313 2.416-1.346.706-2.696 1.517-4.02 2.332l1.153-4.468-.619-.756c-8.028 1.629-9.862 1.847-17.271 2.891l-.569.414c-.899 7.142-1.629 12.508-4.822 26.549-1.216 5.174-2.478 10.397-3.74 15.558l.339.656c7.614-.401 9.887-.401 16.481-.292zm55.235.291c.473-2.307 3.28-15.981 3.305-15.981 0 0 2.391-10.033 2.537-10.397 0 0 .752-1.045 1.505-1.458h1.107c10.443 0 22.236 0 31.48-6.8 6.29-4.664 10.59-11.55 12.508-19.92.497-2.052.864-4.493.864-6.933 0-3.205-.644-6.377-2.503-8.855-4.713-6.594-14.1-6.716-24.935-6.765l-5.341.05c-13.87.171-19.432.121-21.717-.159-.193 1.01-.557 2.808-.557 2.808s-4.968 23.026-4.968 23.063c0 0-11.889 48.956-12.449 51.263 12.11-.146 17.075-.146 19.165.084zm9.206-40.903s5.282-22.979 5.257-22.892l.171-1.178.075-.899 2.111.218s10.894.936 11.149.961c4.3 1.663 6.072 5.951 4.835 11.547-1.129 5.114-4.446 9.414-8.709 11.491-3.51 1.76-7.81 1.906-12.241 1.906h-2.867l.218-1.153zm32.889 19.809c-1.396 5.951-3 16.82 6.946 20.694 3.171 1.349 6.013 1.75 8.901 1.604 3.05-.165 5.876-1.694 8.494-3.896l-.709 2.717.451.581c7.154-.302 9.374-.302 17.125-.243l.703-.535c1.132-6.653 2.198-13.114 5.139-25.843 1.433-6.097 2.863-12.135 4.334-18.207l-.23-.668c-8.003 1.483-10.142 1.8-17.84 2.891l-.585.476-.233 1.806c-1.197-1.934-2.932-3.585-5.609-4.614-3.423-1.346-11.463.389-18.375 6.681-4.856 4.493-7.188 10.649-8.513 16.553zm16.808.364c1.713-7.334 3.681-13.54 8.78-13.54 3.224 0 4.922 2.975 4.577 8.049-.274 1.265-.569 2.599-.92 4.107-.51 2.179-1.063 4.34-1.601 6.504-.547 1.48-1.185 2.876-1.884 3.806-1.312 1.859-4.434 3.013-6.231 3.013-.51 0-3.656 0-3.765-4.639-.025-2.31.451-4.689 1.045-7.3zm87.772-24.217l-.619-.706c-7.919 1.604-9.352 1.859-16.627 2.842l-.535.535-.084.342-.025-.121c-5.416 12.495-5.257 9.8-9.666 19.637l-.05-1.203-1.104-21.325-.693-.706c-8.295 1.604-8.491 1.859-16.152 2.842l-.597.535c-.084.255-.084.535-.134.839l.05.109c.958 4.894.728 3.802 1.688 11.525.448 3.79 1.045 7.602 1.492 11.345.756 6.265 1.178 9.349 2.102 18.91-5.174 8.538-6.399 11.768-11.379 19.261l.034.075-3.507 5.547c-.401.585-.765.986-1.275 1.157-.56.277-1.287.326-2.298.326h-1.943l-2.888 9.607 9.909.171c5.817-.025 9.473-2.745 11.441-6.402l6.231-10.677h-.099l.656-.752c4.191-9.023 36.072-63.712 36.072-63.712zm-104.58 126.175h-4.204l15.558-51.459h5.161l1.638-5.301.159 5.895c-.193 3.644 2.674 6.874 10.204 6.339h8.709l2.997-9.909h-3.277c-1.884 0-2.758-.476-2.649-1.495l-.159-5.997h-16.127v.031c-5.214.109-20.784.501-23.937 1.34-3.815.982-7.835 3.874-7.835 3.874l1.579-5.307h-15.085l-3.143 10.531-15.766 52.245h-3.059l-3 9.837h30.046l-1.007 3.28h14.806l.982-3.28h4.154l3.255-10.624zm-12.328-41.003c-2.416.668-6.912 2.696-6.912 2.696l3.998-13.152h11.986l-2.891 9.582s-3.703.218-6.181.874zm.23 18.788s-3.765.473-6.243 1.032c-2.441.74-7.017 3.072-7.017 3.072l4.129-13.686h12.048l-2.916 9.582zm-6.716 22.336h-12.023l3.485-11.55h11.986l-3.448 11.55zm28.954-31.918h17.33l-2.49 8.065h-17.56l-2.637 8.817h15.365l-11.634 16.382c-.815 1.203-1.545 1.629-2.357 1.968-.815.414-1.884.899-3.122.899h-4.263l-2.929 9.657h11.149c5.795 0 9.218-2.637 11.746-6.097l7.978-10.919 1.713 11.087c.364 2.077 1.856 3.293 2.867 3.765 1.116.56 2.27 1.52 3.899 1.663 1.747.075 3.01.134 3.849.134h5.478l3.289-10.807h-2.161c-1.241 0-3.376-.208-3.74-.597-.364-.473-.364-1.2-.56-2.307l-1.738-11.112h-7.117l3.122-3.715h17.526l2.696-8.817h-16.226l2.528-8.065h16.177l3-9.946h-48.228l-2.951 9.946zm-146.371 34.164l4.045-13.456h16.624l3.038-10.008h-16.64l2.54-8.283h16.261l3.013-9.691h-40.686l-2.951 9.691h9.243l-2.466 8.283h-9.268l-3.072 10.179h9.24l-5.391 17.803c-.728 2.357.342 3.255 1.02 4.35.693 1.066 1.396 1.772 2.975 2.173 1.629.364 2.745.581 4.263.581h18.742l3.339-11.087-8.308 1.141c-1.604 0-6.047-.193-5.562-1.676zm1.907-64.417l-4.213 7.614c-.902 1.663-1.713 2.696-2.444 3.171-.644.401-1.918.569-3.765.569h-2.198l-2.938 9.741h7.3c3.51 0 6.206-1.287 7.493-1.931 1.384-.74 1.747-.317 2.817-1.349l2.466-2.136h22.796l3.025-10.142h-16.687l2.913-5.537h-16.565zm33.654 64.612c-.389-.56-.109-1.545.485-3.597l6.231-20.623h22.165c3.23-.047 5.562-.084 7.079-.193 1.629-.171 3.401-.752 5.332-1.797 1.993-1.094 3.013-2.248 3.874-3.572.961-1.321 2.503-4.213 3.827-8.671l7.832-26.098-23.001.134s-7.083 1.045-10.201 2.198c-3.146 1.287-7.642 4.881-7.642 4.881l2.077-7.154h-14.209l-19.892 65.972c-.706 2.562-1.178 4.421-1.287 5.537-.037 1.203 1.517 2.394 2.525 3.293 1.191.899 2.951.752 4.639.899 1.775.134 4.3.218 7.785.218h10.919l3.352-11.317-9.775.923c-1.045 0-1.8-.56-2.114-1.032zm10.736-38.149h23.281l-1.48 4.639c-.208.109-.706-.23-3.075.05h-20.159l1.433-4.689zm4.664-15.558h23.477l-1.688 5.587s-11.065-.109-12.837.218c-7.798 1.349-12.352 5.516-12.352 5.516l3.401-11.32zm17.658 35.731c-.193.693-.497 1.116-.923 1.433-.473.305-1.237.414-2.378.414h-3.317l.196-5.649h-13.798l-.56 27.618c-.022 1.993.171 3.146 1.629 4.07 1.458 1.153 5.951 1.3 11.998 1.3h8.646l3.122-10.338-7.527.414-2.503.146c-.342-.146-.668-.28-1.032-.644-.317-.314-.852-.121-.765-2.114l.059-7.079 7.894-.326c4.263 0 6.085-1.387 7.639-2.708 1.483-1.265 1.968-2.72 2.528-4.689l1.324-6.268h-10.848l-1.384 4.421z" fill="#FEFEFE"/></svg>
