<svg height="512pt" viewBox="0 -1 512.0016 512" width="512pt" xmlns="http://www.w3.org/2000/svg"><path d="m371.203125 275.820312c1.246094.503907 2.527344.742188 3.789063.742188 4 0 7.789062-2.390625 9.378906-6.328125l.195312-.476563c2.09375-5.175781-.40625-11.074218-5.585937-13.167968-5.179688-2.09375-11.074219.40625-13.167969 5.585937l-.195312.476563c-2.09375 5.179687.410156 11.074218 5.585937 13.167968zm0 0"/><path d="m501.886719 319.910156h-8.804688v-84.554687c0-20.867188-7.753906-40.832031-21.828125-56.214844-8.894531-9.726563-19.828125-17.101563-31.894531-21.683594 17.003906-16.6875 27.566406-39.914062 27.566406-65.566406 0-50.667969-41.21875-91.890625-91.890625-91.890625-50.667968 0-91.890625 41.222656-91.890625 91.894531 0 28.792969 13.3125 54.535157 34.105469 71.394531-2.832031 2.519532-5.535156 4.921876-8.125 7.226563-.136719.121094-.269531.25-.402344.378906l-62.125 61.738281-62.128906-61.738281c-.132812-.128906-.265625-.257812-.40625-.378906-2.585938-2.304687-5.289062-4.707031-8.121094-7.226563 20.792969-16.859374 34.105469-42.601562 34.105469-71.394531 0-50.671875-41.222656-91.894531-91.890625-91.894531-50.671875 0-91.890625 41.222656-91.890625 91.894531 0 25.648438 10.5625 48.875 27.570313 65.5625-12.070313 4.582031-23.003907 11.960938-31.898438 21.683594-14.074219 15.382813-21.824219 35.347656-21.824219 56.214844 0 5.582031 4.527344 10.113281 10.113281 10.113281 5.585938 0 10.113282-4.53125 10.113282-10.113281 0-31.828125 23.203125-58.238281 54.402344-62.488281 10.121093 5.445312 21.371093 9.050781 33.300781 10.363281v82.738281c0 5.585938 4.527343 10.113281 10.113281 10.113281s10.113281-4.527343 10.113281-10.113281v-82.738281c10.621094-1.167969 20.707031-4.15625 29.929688-8.640625 4.347656 3.859375 8.40625 7.460937 12.207031 10.847656l61.84375 61.457031-9.847656 9.785157c-3.609375 3.605468-6.320313 7.875-8.019532 12.527343l-29.890624-29.890625c-2.894532-2.894531-7.246094-3.757812-11.023438-2.191406s-6.242188 5.253906-6.242188 9.34375v73.441406h-98.140624v-68.683594c0-5.585937-4.527344-10.113281-10.113282-10.113281-5.585937 0-10.113281 4.527344-10.113281 10.113281v62.058594c0 7.859375-6.398437 14.257813-14.261719 14.257813-7.351562 0-13.453125-5.503907-14.183594-12.804688-.558593-5.558593-5.523437-9.605469-11.078124-9.050781-5.554688.558594-9.609376 5.519531-9.050782 11.074219 1.777344 17.679687 16.53125 31.007812 34.316406 31.007812 5.082032 0 9.910157-1.105469 14.257813-3.085937v154.785156c0 5.585938 4.527344 10.113281 10.113281 10.113281h118.253906c5.585938 0 10.117188-4.527343 10.117188-10.113281v-167.9375c.070312-.492188.109375-.996094.109375-1.507812v-59.140626l34.566406 34.566407c6.382813 6.378906 14.664063 9.734375 23.039063 10.058593.574218.027344 1.152344.042969 1.730468.042969 9.210938 0 17.871094-3.585937 24.386719-10.101562l34.566407-34.566407v59.140626c0 .511718.039062 1.011718.109374 1.503906v167.9375c0 5.585937 4.527344 10.113281 10.113282 10.113281h118.257812c5.585938 0 10.113282-4.527344 10.113282-10.113281v-73.675782h57.550781c5.585937 0 10.113281-4.527343 10.113281-10.113281v-85.652343c0-5.585938-4.527344-10.113282-10.113281-10.113282zm-455.394531-228.015625c0-39.515625 32.148437-71.664062 71.664062-71.664062s71.664062 32.148437 71.664062 71.664062c0 39.511719-32.148437 71.660157-71.664062 71.660157s-71.664062-32.148438-71.664062-71.660157zm120.621093 397.457031h-38.898437v-101.820312c0-5.585938-4.527344-10.113281-10.113282-10.113281-5.585937 0-10.113281 4.527343-10.113281 10.113281v101.820312h-38.902343v-149.214843h98.027343zm136.261719-397.457031c0-39.515625 32.144531-71.664062 71.660156-71.664062s71.664063 32.148437 71.664063 71.664062c0 39.511719-32.148438 71.660157-71.664063 71.660157s-71.660156-32.148438-71.660156-71.660157zm-45.046875 197.796875c-.65625.402344-1.273437.890625-1.839844 1.457032-2.789062 2.789062-6.460937 4.179687-10.125 4.167968-3.648437-.105468-7.066406-1.574218-9.660156-4.171875-2.691406-2.691406-4.175781-6.273437-4.175781-10.082031s1.484375-7.390625 4.15625-10.058594l86.101562-85.566406c3.804688-3.386719 7.859375-6.988281 12.207032-10.847656 9.226562 4.484375 19.308593 7.472656 29.929687 8.640625v42.953125c0 5.585937 4.527344 10.113281 10.113281 10.113281 5.585938 0 10.117188-4.527344 10.117188-10.113281v-42.953125c11.929687-1.3125 23.179687-4.917969 33.296875-10.363281 31.199219 4.25 54.402343 30.660156 54.402343 62.484374v84.558594h-28.515624v-68.6875c0-5.585937-4.53125-10.113281-10.117188-10.113281s-10.113281 4.527344-10.113281 10.113281v68.6875h-98.140625v-73.441406c0-4.089844-2.460938-7.78125-6.242188-9.34375-3.777344-1.566406-8.128906-.699219-11.019531 2.191406zm67.75 50.445313h38.804687v75.542969c0 .472656.03125.941406.097657 1.398437v72.273437h-38.902344zm98.027344 149.214843h-38.898438v-63.558593h38.898438zm67.667969-83.789062h-106.566407v-18.03125c0-.476562-.035156-.941406-.097656-1.398438v-45.996093h106.664063zm0 0"/><path d="m462.210938 362.738281h-47.535157c-5.585937 0-10.113281 4.527344-10.113281 10.113281 0 5.585938 4.527344 10.113282 10.113281 10.113282h47.535157c5.585937 0 10.113281-4.527344 10.113281-10.113282 0-5.585937-4.527344-10.113281-10.113281-10.113281zm0 0"/><path d="m6.324219 285.355469c1.246093.503906 2.527343.738281 3.789062.738281 4 0 7.789063-2.386719 9.378907-6.324219l.195312-.476562c2.09375-5.179688-.40625-11.074219-5.585938-13.167969-5.179687-2.09375-11.074218.40625-13.167968 5.582031l-.195313.480469c-2.09375 5.179688.410157 11.074219 5.585938 13.167969zm0 0"/></svg>
