<?xml version="1.0" encoding="UTF-8" standalone="no"?><!DOCTYPE svg PUBLIC "-//W3C//DTD SVG 1.1//EN" "http://www.w3.org/Graphics/SVG/1.1/DTD/svg11.dtd"><svg width="100%" height="100%" viewBox="0 0 130 130" version="1.1" xmlns="http://www.w3.org/2000/svg" xmlns:xlink="http://www.w3.org/1999/xlink" xml:space="preserve" xmlns:serif="http://www.serif.com/" style="fill-rule:evenodd;clip-rule:evenodd;"><rect id="canvas_background" x="-1" y="-1" width="0" height="0" style="fill:none;"/><g><g id="svg_9"><path id="svg_11" d="M54.4,2c20,0 -3.8,26.3 12.4,38.1c16.2,11.8 33.9,-19.1 40.1,0c6.2,19.1 -26.2,4.5 -32.4,23.6c-6.3,19 28.5,26.3 12.3,38.1c-16.2,11.8 -12.4,-23.6 -32.4,-23.6c-20,0 -16.2,35.3 -32.4,23.6c-16.2,-11.8 18.5,-19.1 12.4,-38.1c-6.2,-19.1 -38.7,-4.5 -32.5,-23.6c6.2,-19 26.4,12.9 40.1,0c15.3,-14.3 -7.6,-38.1 12.4,-38.1Z" style="fill:#5485f7;fill-rule:nonzero;"/><g id="svg_12"><circle id="svg_13" cx="112.1" cy="75.9" r="13.5" style="fill:#27b0ef;stroke:#fff;stroke-width:0.68px;"/><circle id="svg_14" cx="16.9" cy="69" r="13.5" style="fill:#27b0ef;stroke:#fff;stroke-width:0.68px;"/><circle id="svg_15" cx="54.4" cy="96" r="13.5" style="fill:#27b0ef;stroke:#fff;stroke-width:0.68px;"/><circle id="svg_16" cx="77.4" cy="25.8" r="13.5" style="fill:#27b0ef;stroke:#fff;stroke-width:0.68px;"/><circle id="svg_17" cx="31.4" cy="25.7" r="13.5" style="fill:#27b0ef;stroke:#fff;stroke-width:0.68px;"/></g></g></g></svg>
